# xmcd
#
# Track frame offsets: 
#        150
#        5497
#        28001
#        58614
#        77866
#        93764
#        110475
#        123570
#        141062
#
# Disc length: 2255 seconds
#
# Revision: 0
# Processed by: cddbd v1.5.2PL0 Copyright (c) Steve Scherf et al.
# Submitted via: ExactAudioCopy v1.0b3
#
DISCID=6f08cd09
DTITLE=Kalle Sändare - Boxen e' klar - CD 3 - Julbestyr
DYEAR=2014
DGENRE=Comedy
TTITLE0=Nu är det åter jul
TTITLE1=Kinesiskt julbord
TTITLE2=Julgrisar till salu, Förfrågan och svar
TTITLE3=Julgrisar till salu, En att dela på
TTITLE4=Julgrisar till salu, Tysk köpman
TTITLE5=Julgrisar till salu
TTITLE6=Julgrisar till salu, En hatt utan stänk
TTITLE7=Överblivna resor, Julresor
TTITLE8=Julgrisar till salu, Indisk språklektion
EXTD=
EXTT0=
EXTT1=
EXTT2=
EXTT3=
EXTT4=
EXTT5=
EXTT6=
EXTT7=
EXTT8=
PLAYORDER=
